<svg width="42" height="42" viewBox="0 0 42 42" fill="none" xmlns="http://www.w3.org/2000/svg">
<circle cx="21" cy="21" r="21" fill="#F5F6FB" fill-opacity="0.2"/>
<circle cx="21" cy="21" r="20.6024" stroke="white" stroke-opacity="0.22" stroke-width="0.795111"/>
<path d="M26.8346 21.9421C26.8344 22.4789 26.3992 22.9144 25.8624 22.9144C25.3256 22.9144 24.8904 22.4789 24.8902 21.9421V18.4833L16.8275 26.546C16.4478 26.9256 15.8324 26.9256 15.4527 26.546C15.073 26.1663 15.073 25.5509 15.4527 25.1712L23.5154 17.1085H19.2875C18.7506 17.1085 18.3153 16.6732 18.3153 16.1363C18.3153 15.5994 18.7506 15.1641 19.2875 15.1641H25.8624C26.3994 15.1641 26.8346 15.5993 26.8346 16.1363V21.9421Z" fill="#F5F6FB"/>
</svg>
