<svg width="94" height="97" viewBox="0 0 94 97" fill="none" xmlns="http://www.w3.org/2000/svg">
<path d="M0 24.4268C0 10.9362 11.0202 0 24.6144 0L69.1766 0C82.7707 0 93.7909 10.9362 93.7909 24.4268C93.7909 35.5522 86.296 44.9405 76.0435 47.8903C75.9767 47.9095 75.9302 47.9702 75.9302 48.0393C75.9302 48.1083 75.9767 48.169 76.0435 48.1882C86.296 51.138 93.7909 60.5263 93.7909 71.6518C93.7909 85.1423 82.7707 96.0785 69.1766 96.0785H24.6144C11.0202 96.0785 0 85.1423 0 71.6518C0 60.5989 7.39741 51.2607 17.5471 48.2468C17.6395 48.2193 17.7036 48.135 17.7036 48.0393C17.7036 47.9435 17.6395 47.8592 17.5471 47.8317C7.39741 44.8178 0 35.4796 0 24.4268Z" fill="#0ECB7B"/>
</svg>
