<svg width="1518" height="1025" viewBox="0 0 1518 1025" fill="none" xmlns="http://www.w3.org/2000/svg">
<rect width="1518" height="1025" fill="black"/>
<path d="M601.523 965V61H846.323L967.523 491.8C976.323 523.8 985.123 559.4 993.923 598.6C1003.52 637 1010.72 667.4 1015.52 689.8L1021.52 723.4H1023.92C1039.12 641 1056.72 563.8 1076.72 491.8L1197.92 61H1446.32V965H1284.32V427L1291.52 249.4H1289.12C1276.32 316.6 1263.92 371 1251.92 412.6L1104.32 965H937.523L793.523 412.6L756.323 249.4H753.923C758.723 321.4 761.123 380.6 761.123 427V965H601.523Z" fill="#F5F6FB"/>
<path d="M271 965V345.4H85V237.4C208.2 232.6 277.4 183.8 292.6 91H435.4V965H271Z" fill="#F5F6FB"/>
</svg>
