<svg width="1693" height="263" viewBox="0 0 1693 263" fill="none" xmlns="http://www.w3.org/2000/svg">
<mask id="path-1-outside-1_2177_256" maskUnits="userSpaceOnUse" x="-0.609375" y="-0.0742188" width="1693" height="263" fill="black">
<rect fill="white" x="-0.609375" y="-0.0742188" width="1693" height="263"/>
<path d="M58.7426 254.926V38.3298L1.99863 80.1958V49.0558L60.4726 5.80577H85.7306V254.926H58.7426ZM195.602 254.926V7.53577H235.392L315.664 213.06H316.356L395.936 7.53577H436.418V254.926H406.662V51.4778H405.97C401.587 64.3951 397.897 74.7751 394.898 82.6178L327.082 254.926H303.208L235.392 82.6178L224.32 51.4778H223.628V254.926H195.602ZM480.041 254.926V7.53577H511.181V254.926H480.041ZM554.617 254.926V7.53577H585.757V226.208H715.507V254.926H554.617ZM742.741 254.926V7.53577H773.881V226.208H903.631V254.926H742.741ZM931.557 254.926V7.53577H962.697V254.926H931.557ZM1205.78 223.786C1183.86 248.006 1154.57 260.116 1117.89 260.116C1081.22 260.116 1051.81 248.006 1029.66 223.786C1007.75 199.566 996.792 168.656 996.792 131.058C996.792 93.4591 1007.75 62.5498 1029.66 38.3298C1051.81 14.1098 1081.22 1.99978 1117.89 1.99978C1154.57 1.99978 1183.86 14.1098 1205.78 38.3298C1227.92 62.5498 1238.99 93.4591 1238.99 131.058C1238.99 168.656 1227.92 199.566 1205.78 223.786ZM1052.15 204.41C1067.84 223.324 1089.75 232.782 1117.89 232.782C1146.03 232.782 1167.95 223.324 1183.63 204.41C1199.32 185.495 1207.16 161.044 1207.16 131.058C1207.16 101.071 1199.32 76.6204 1183.63 57.7058C1167.95 38.5604 1146.03 28.9878 1117.89 28.9878C1089.75 28.9878 1067.84 38.5604 1052.15 57.7058C1036.47 76.6204 1028.62 101.071 1028.62 131.058C1028.62 161.044 1036.47 185.495 1052.15 204.41ZM1272.65 254.926V7.53577H1305.52L1418.31 179.498L1436.31 211.33H1437V7.53577H1466.06V254.926H1434.23L1320.74 82.6178L1302.4 51.8238H1301.71V254.926H1272.65ZM1599.05 259.77C1565.83 259.77 1540.23 251.581 1522.24 235.204C1504.48 218.826 1494.9 197.49 1493.52 171.194H1523.97C1528.12 213.636 1553.61 234.858 1600.43 234.858C1618.2 234.858 1632.38 230.936 1642.99 223.094C1653.83 215.02 1659.25 203.487 1659.25 188.494C1659.25 181.804 1657.99 175.922 1655.45 170.848C1652.91 165.773 1649.8 161.621 1646.11 158.392C1642.65 155.162 1637.34 152.164 1630.19 149.396C1623.04 146.628 1616.35 144.436 1610.12 142.822C1604.13 141.207 1595.82 139.246 1585.21 136.94C1572.52 134.172 1562.03 131.404 1553.72 128.636C1545.42 125.637 1537.12 121.6 1528.81 116.526C1520.51 111.451 1514.28 104.992 1510.13 97.1498C1506.21 89.0764 1504.25 79.3884 1504.25 68.0858C1504.25 47.7871 1511.86 31.8711 1527.08 20.3378C1542.54 8.57377 1562.95 2.69177 1588.32 2.69177C1643.92 2.69177 1675.17 28.4111 1682.09 79.8498H1652.68C1650.37 62.3191 1643.8 49.1711 1632.96 40.4058C1622.12 31.4098 1607.47 26.9118 1589.02 26.9118C1571.95 26.9118 1558.34 30.3718 1548.19 37.2918C1538.27 44.2118 1533.31 54.0151 1533.31 66.7018C1533.31 72.2378 1534.35 77.1971 1536.42 81.5798C1538.73 85.7318 1541.61 89.3071 1545.07 92.3058C1548.77 95.0738 1553.49 97.6111 1559.26 99.9178C1565.26 102.224 1571.14 104.185 1576.91 105.8C1582.67 107.184 1589.71 108.683 1598.01 110.298C1609.55 112.604 1619 114.796 1626.38 116.872C1633.77 118.717 1641.95 121.6 1650.95 125.522C1659.95 129.443 1666.87 133.941 1671.71 139.016C1676.79 144.09 1681.05 150.78 1684.51 159.084C1688.2 167.157 1690.05 176.614 1690.05 187.456C1690.05 210.061 1681.63 227.822 1664.79 240.74C1648.18 253.426 1626.27 259.77 1599.05 259.77Z"/>
</mask>
<path d="M58.7426 254.926V38.3298L1.99863 80.1958V49.0558L60.4726 5.80577H85.7306V254.926H58.7426ZM195.602 254.926V7.53577H235.392L315.664 213.06H316.356L395.936 7.53577H436.418V254.926H406.662V51.4778H405.97C401.587 64.3951 397.897 74.7751 394.898 82.6178L327.082 254.926H303.208L235.392 82.6178L224.32 51.4778H223.628V254.926H195.602ZM480.041 254.926V7.53577H511.181V254.926H480.041ZM554.617 254.926V7.53577H585.757V226.208H715.507V254.926H554.617ZM742.741 254.926V7.53577H773.881V226.208H903.631V254.926H742.741ZM931.557 254.926V7.53577H962.697V254.926H931.557ZM1205.78 223.786C1183.86 248.006 1154.57 260.116 1117.89 260.116C1081.22 260.116 1051.81 248.006 1029.66 223.786C1007.75 199.566 996.792 168.656 996.792 131.058C996.792 93.4591 1007.75 62.5498 1029.66 38.3298C1051.81 14.1098 1081.22 1.99978 1117.89 1.99978C1154.57 1.99978 1183.86 14.1098 1205.78 38.3298C1227.92 62.5498 1238.99 93.4591 1238.99 131.058C1238.99 168.656 1227.92 199.566 1205.78 223.786ZM1052.15 204.41C1067.84 223.324 1089.75 232.782 1117.89 232.782C1146.03 232.782 1167.95 223.324 1183.63 204.41C1199.32 185.495 1207.16 161.044 1207.16 131.058C1207.16 101.071 1199.32 76.6204 1183.63 57.7058C1167.95 38.5604 1146.03 28.9878 1117.89 28.9878C1089.75 28.9878 1067.84 38.5604 1052.15 57.7058C1036.47 76.6204 1028.62 101.071 1028.62 131.058C1028.62 161.044 1036.47 185.495 1052.15 204.41ZM1272.65 254.926V7.53577H1305.52L1418.31 179.498L1436.31 211.33H1437V7.53577H1466.06V254.926H1434.23L1320.74 82.6178L1302.4 51.8238H1301.71V254.926H1272.65ZM1599.05 259.77C1565.83 259.77 1540.23 251.581 1522.24 235.204C1504.48 218.826 1494.9 197.49 1493.52 171.194H1523.97C1528.12 213.636 1553.61 234.858 1600.43 234.858C1618.2 234.858 1632.38 230.936 1642.99 223.094C1653.83 215.02 1659.25 203.487 1659.25 188.494C1659.25 181.804 1657.99 175.922 1655.45 170.848C1652.91 165.773 1649.8 161.621 1646.11 158.392C1642.65 155.162 1637.34 152.164 1630.19 149.396C1623.04 146.628 1616.35 144.436 1610.12 142.822C1604.13 141.207 1595.82 139.246 1585.21 136.94C1572.52 134.172 1562.03 131.404 1553.72 128.636C1545.42 125.637 1537.12 121.6 1528.81 116.526C1520.51 111.451 1514.28 104.992 1510.13 97.1498C1506.21 89.0764 1504.25 79.3884 1504.25 68.0858C1504.25 47.7871 1511.86 31.8711 1527.08 20.3378C1542.54 8.57377 1562.95 2.69177 1588.32 2.69177C1643.92 2.69177 1675.17 28.4111 1682.09 79.8498H1652.68C1650.37 62.3191 1643.8 49.1711 1632.96 40.4058C1622.12 31.4098 1607.47 26.9118 1589.02 26.9118C1571.95 26.9118 1558.34 30.3718 1548.19 37.2918C1538.27 44.2118 1533.31 54.0151 1533.31 66.7018C1533.31 72.2378 1534.35 77.1971 1536.42 81.5798C1538.73 85.7318 1541.61 89.3071 1545.07 92.3058C1548.77 95.0738 1553.49 97.6111 1559.26 99.9178C1565.26 102.224 1571.14 104.185 1576.91 105.8C1582.67 107.184 1589.71 108.683 1598.01 110.298C1609.55 112.604 1619 114.796 1626.38 116.872C1633.77 118.717 1641.95 121.6 1650.95 125.522C1659.95 129.443 1666.87 133.941 1671.71 139.016C1676.79 144.09 1681.05 150.78 1684.51 159.084C1688.2 167.157 1690.05 176.614 1690.05 187.456C1690.05 210.061 1681.63 227.822 1664.79 240.74C1648.18 253.426 1626.27 259.77 1599.05 259.77Z" fill="#0A0A0A"/>
<path d="M58.7426 254.926H56.7426V256.926H58.7426V254.926ZM58.7426 38.3298H60.7426V34.3687L57.5552 36.7204L58.7426 38.3298ZM1.99863 80.1958H-0.00137486V84.1568L3.18603 81.8052L1.99863 80.1958ZM1.99863 49.0558L0.809308 47.4478L-0.00137486 48.0474V49.0558H1.99863ZM60.4726 5.80577V3.80577H59.8134L59.2833 4.19781L60.4726 5.80577ZM85.7306 5.80577H87.7306V3.80577H85.7306V5.80577ZM85.7306 254.926V256.926H87.7306V254.926H85.7306ZM58.7426 254.926H60.7426V38.3298H58.7426H56.7426V254.926H58.7426ZM58.7426 38.3298L57.5552 36.7204L0.811223 78.5864L1.99863 80.1958L3.18603 81.8052L59.93 39.9391L58.7426 38.3298ZM1.99863 80.1958H3.99863V49.0558H1.99863H-0.00137486V80.1958H1.99863ZM1.99863 49.0558L3.18794 50.6637L61.6619 7.41373L60.4726 5.80577L59.2833 4.19781L0.809308 47.4478L1.99863 49.0558ZM60.4726 5.80577V7.80577H85.7306V5.80577V3.80577H60.4726V5.80577ZM85.7306 5.80577H83.7306V254.926H85.7306H87.7306V5.80577H85.7306ZM85.7306 254.926V252.926H58.7426V254.926V256.926H85.7306V254.926ZM195.602 254.926H193.602V256.926H195.602V254.926ZM195.602 7.53577V5.53577H193.602V7.53577H195.602ZM235.392 7.53577L237.255 6.80815L236.758 5.53577H235.392V7.53577ZM315.664 213.06L313.801 213.787L314.298 215.06H315.664V213.06ZM316.356 213.06V215.06H317.726L318.221 213.782L316.356 213.06ZM395.936 7.53577V5.53577H394.566L394.071 6.81361L395.936 7.53577ZM436.418 7.53577H438.418V5.53577H436.418V7.53577ZM436.418 254.926V256.926H438.418V254.926H436.418ZM406.662 254.926H404.662V256.926H406.662V254.926ZM406.662 51.4778H408.662V49.4778H406.662V51.4778ZM405.97 51.4778V49.4778H404.536L404.076 50.8352L405.97 51.4778ZM394.898 82.6178L396.759 83.3502L396.762 83.3412L396.766 83.332L394.898 82.6178ZM327.082 254.926V256.926H328.444L328.943 255.658L327.082 254.926ZM303.208 254.926L301.347 255.658L301.846 256.926H303.208V254.926ZM235.392 82.6178L233.507 83.2878L233.519 83.3192L233.531 83.3502L235.392 82.6178ZM224.32 51.4778L226.204 50.8078L225.731 49.4778H224.32V51.4778ZM223.628 51.4778V49.4778H221.628V51.4778H223.628ZM223.628 254.926V256.926H225.628V254.926H223.628ZM195.602 254.926H197.602V7.53577H195.602H193.602V254.926H195.602ZM195.602 7.53577V9.53577H235.392V7.53577V5.53577H195.602V7.53577ZM235.392 7.53577L233.529 8.26339L313.801 213.787L315.664 213.06L317.527 212.332L237.255 6.80815L235.392 7.53577ZM315.664 213.06V215.06H316.356V213.06V211.06H315.664V213.06ZM316.356 213.06L318.221 213.782L397.801 8.25793L395.936 7.53577L394.071 6.81361L314.491 212.338L316.356 213.06ZM395.936 7.53577V9.53577H436.418V7.53577V5.53577H395.936V7.53577ZM436.418 7.53577H434.418V254.926H436.418H438.418V7.53577H436.418ZM436.418 254.926V252.926H406.662V254.926V256.926H436.418V254.926ZM406.662 254.926H408.662V51.4778H406.662H404.662V254.926H406.662ZM406.662 51.4778V49.4778H405.97V51.4778V53.4778H406.662V51.4778ZM405.97 51.4778L404.076 50.8352C399.697 63.7413 396.016 74.0945 393.03 81.9035L394.898 82.6178L396.766 83.332C399.777 75.4557 403.477 65.0489 407.864 52.1204L405.97 51.4778ZM394.898 82.6178L393.037 81.8853L325.221 254.193L327.082 254.926L328.943 255.658L396.759 83.3502L394.898 82.6178ZM327.082 254.926V252.926H303.208V254.926V256.926H327.082V254.926ZM303.208 254.926L305.069 254.193L237.253 81.8853L235.392 82.6178L233.531 83.3502L301.347 255.658L303.208 254.926ZM235.392 82.6178L237.276 81.9478L226.204 50.8078L224.32 51.4778L222.435 52.1478L233.507 83.2878L235.392 82.6178ZM224.32 51.4778V49.4778H223.628V51.4778V53.4778H224.32V51.4778ZM223.628 51.4778H221.628V254.926H223.628H225.628V51.4778H223.628ZM223.628 254.926V252.926H195.602V254.926V256.926H223.628V254.926ZM480.041 254.926H478.041V256.926H480.041V254.926ZM480.041 7.53577V5.53577H478.041V7.53577H480.041ZM511.181 7.53577H513.181V5.53577H511.181V7.53577ZM511.181 254.926V256.926H513.181V254.926H511.181ZM480.041 254.926H482.041V7.53577H480.041H478.041V254.926H480.041ZM480.041 7.53577V9.53577H511.181V7.53577V5.53577H480.041V7.53577ZM511.181 7.53577H509.181V254.926H511.181H513.181V7.53577H511.181ZM511.181 254.926V252.926H480.041V254.926V256.926H511.181V254.926ZM554.617 254.926H552.617V256.926H554.617V254.926ZM554.617 7.53577V5.53577H552.617V7.53577H554.617ZM585.757 7.53577H587.757V5.53577H585.757V7.53577ZM585.757 226.208H583.757V228.208H585.757V226.208ZM715.507 226.208H717.507V224.208H715.507V226.208ZM715.507 254.926V256.926H717.507V254.926H715.507ZM554.617 254.926H556.617V7.53577H554.617H552.617V254.926H554.617ZM554.617 7.53577V9.53577H585.757V7.53577V5.53577H554.617V7.53577ZM585.757 7.53577H583.757V226.208H585.757H587.757V7.53577H585.757ZM585.757 226.208V228.208H715.507V226.208V224.208H585.757V226.208ZM715.507 226.208H713.507V254.926H715.507H717.507V226.208H715.507ZM715.507 254.926V252.926H554.617V254.926V256.926H715.507V254.926ZM742.741 254.926H740.741V256.926H742.741V254.926ZM742.741 7.53577V5.53577H740.741V7.53577H742.741ZM773.881 7.53577H775.881V5.53577H773.881V7.53577ZM773.881 226.208H771.881V228.208H773.881V226.208ZM903.631 226.208H905.631V224.208H903.631V226.208ZM903.631 254.926V256.926H905.631V254.926H903.631ZM742.741 254.926H744.741V7.53577H742.741H740.741V254.926H742.741ZM742.741 7.53577V9.53577H773.881V7.53577V5.53577H742.741V7.53577ZM773.881 7.53577H771.881V226.208H773.881H775.881V7.53577H773.881ZM773.881 226.208V228.208H903.631V226.208V224.208H773.881V226.208ZM903.631 226.208H901.631V254.926H903.631H905.631V226.208H903.631ZM903.631 254.926V252.926H742.741V254.926V256.926H903.631V254.926ZM931.557 254.926H929.557V256.926H931.557V254.926ZM931.557 7.53577V5.53577H929.557V7.53577H931.557ZM962.697 7.53577H964.697V5.53577H962.697V7.53577ZM962.697 254.926V256.926H964.697V254.926H962.697ZM931.557 254.926H933.557V7.53577H931.557H929.557V254.926H931.557ZM931.557 7.53577V9.53577H962.697V7.53577V5.53577H931.557V7.53577ZM962.697 7.53577H960.697V254.926H962.697H964.697V7.53577H962.697ZM962.697 254.926V252.926H931.557V254.926V256.926H962.697V254.926ZM1205.78 223.786L1204.3 222.436L1204.29 222.444L1205.78 223.786ZM1029.66 223.786L1028.18 225.128L1028.19 225.135L1029.66 223.786ZM1029.66 38.3298L1028.19 36.9802L1028.18 36.9879L1029.66 38.3298ZM1205.78 38.3298L1204.29 39.6716L1204.3 39.6793L1205.78 38.3298ZM1052.15 204.41L1053.69 203.133L1053.69 203.133L1052.15 204.41ZM1183.63 204.41L1185.17 205.686L1185.17 205.686L1183.63 204.41ZM1183.63 57.7058L1182.08 58.9733L1182.09 58.9824L1183.63 57.7058ZM1052.15 57.7058L1053.69 58.9825L1053.7 58.9733L1052.15 57.7058ZM1205.78 223.786L1204.29 222.444C1182.81 246.191 1154.08 258.116 1117.89 258.116V260.116V262.116C1155.06 262.116 1184.92 249.821 1207.26 225.128L1205.78 223.786ZM1117.89 260.116V258.116C1081.7 258.116 1052.86 246.191 1031.14 222.436L1029.66 223.786L1028.19 225.135C1050.76 249.821 1080.73 262.116 1117.89 262.116V260.116ZM1029.66 223.786L1031.14 222.444C1009.61 198.647 998.792 168.241 998.792 131.058H996.792H994.792C994.792 169.072 1005.88 200.485 1028.18 225.128L1029.66 223.786ZM996.792 131.058H998.792C998.792 93.875 1009.61 63.4685 1031.14 39.6716L1029.66 38.3298L1028.18 36.9879C1005.88 61.631 994.792 93.0433 994.792 131.058H996.792ZM1029.66 38.3298L1031.14 39.6793C1052.86 15.9249 1081.7 3.99978 1117.89 3.99978V1.99978V-0.000220895C1080.73 -0.000220895 1050.76 12.2947 1028.19 36.9802L1029.66 38.3298ZM1117.89 1.99978V3.99978C1154.08 3.99978 1182.81 15.9246 1204.29 39.6716L1205.78 38.3298L1207.26 36.9879C1184.92 12.2949 1155.06 -0.000220895 1117.89 -0.000220895V1.99978ZM1205.78 38.3298L1204.3 39.6793C1226.06 63.4769 1236.99 93.8806 1236.99 131.058H1238.99H1240.99C1240.99 93.0376 1229.78 61.6226 1207.25 36.9802L1205.78 38.3298ZM1238.99 131.058H1236.99C1236.99 168.235 1226.06 198.639 1204.3 222.436L1205.78 223.786L1207.25 225.135C1229.78 200.493 1240.99 169.078 1240.99 131.058H1238.99ZM1052.15 204.41L1050.61 205.686C1066.74 225.129 1089.25 234.782 1117.89 234.782V232.782V230.782C1090.25 230.782 1068.94 221.52 1053.69 203.133L1052.15 204.41ZM1117.89 232.782V234.782C1146.53 234.782 1169.05 225.129 1185.17 205.686L1183.63 204.41L1182.09 203.133C1166.84 221.52 1145.53 230.782 1117.89 230.782V232.782ZM1183.63 204.41L1185.17 205.686C1201.22 186.339 1209.16 161.404 1209.16 131.058H1207.16H1205.16C1205.16 160.685 1197.42 184.652 1182.09 203.133L1183.63 204.41ZM1207.16 131.058H1209.16C1209.16 100.711 1201.22 75.7768 1185.17 56.4291L1183.63 57.7058L1182.09 58.9824C1197.42 77.464 1205.16 101.431 1205.16 131.058H1207.16ZM1183.63 57.7058L1185.18 56.4383C1169.06 36.7622 1146.54 26.9878 1117.89 26.9878V28.9878V30.9878C1145.53 30.9878 1166.83 40.3586 1182.08 58.9733L1183.63 57.7058ZM1117.89 28.9878V26.9878C1089.24 26.9878 1066.72 36.7622 1050.6 56.4383L1052.15 57.7058L1053.7 58.9733C1068.95 40.3586 1090.26 30.9878 1117.89 30.9878V28.9878ZM1052.15 57.7058L1050.61 56.4291C1034.57 75.7768 1026.62 100.711 1026.62 131.058H1028.62H1030.62C1030.62 101.431 1038.37 77.464 1053.69 58.9824L1052.15 57.7058ZM1028.62 131.058H1026.62C1026.62 161.404 1034.57 186.339 1050.61 205.686L1052.15 204.41L1053.69 203.133C1038.37 184.652 1030.62 160.685 1030.62 131.058H1028.62ZM1272.65 254.926H1270.65V256.926H1272.65V254.926ZM1272.65 7.53577V5.53577H1270.65V7.53577H1272.65ZM1305.52 7.53577L1307.19 6.43882L1306.6 5.53577H1305.52V7.53577ZM1418.31 179.498L1420.06 178.514L1420.02 178.456L1419.99 178.401L1418.31 179.498ZM1436.31 211.33L1434.57 212.314L1435.14 213.33H1436.31V211.33ZM1437 211.33V213.33H1439V211.33H1437ZM1437 7.53577V5.53577H1435V7.53577H1437ZM1466.06 7.53577H1468.06V5.53577H1466.06V7.53577ZM1466.06 254.926V256.926H1468.06V254.926H1466.06ZM1434.23 254.926L1432.56 256.026L1433.15 256.926H1434.23V254.926ZM1320.74 82.6178L1319.02 83.6411L1319.05 83.68L1319.07 83.7179L1320.74 82.6178ZM1302.4 51.8238L1304.12 50.8005L1303.54 49.8238H1302.4V51.8238ZM1301.71 51.8238V49.8238H1299.71V51.8238H1301.71ZM1301.71 254.926V256.926H1303.71V254.926H1301.71ZM1272.65 254.926H1274.65V7.53577H1272.65H1270.65V254.926H1272.65ZM1272.65 7.53577V9.53577H1305.52V7.53577V5.53577H1272.65V7.53577ZM1305.52 7.53577L1303.85 8.63272L1416.64 180.595L1418.31 179.498L1419.99 178.401L1307.19 6.43882L1305.52 7.53577ZM1418.31 179.498L1416.57 180.482L1434.57 212.314L1436.31 211.33L1438.05 210.346L1420.06 178.514L1418.31 179.498ZM1436.31 211.33V213.33H1437V211.33V209.33H1436.31V211.33ZM1437 211.33H1439V7.53577H1437H1435V211.33H1437ZM1437 7.53577V9.53577H1466.06V7.53577V5.53577H1437V7.53577ZM1466.06 7.53577H1464.06V254.926H1466.06H1468.06V7.53577H1466.06ZM1466.06 254.926V252.926H1434.23V254.926V256.926H1466.06V254.926ZM1434.23 254.926L1435.9 253.826L1322.41 81.5177L1320.74 82.6178L1319.07 83.7179L1432.56 256.026L1434.23 254.926ZM1320.74 82.6178L1322.46 81.5945L1304.12 50.8005L1302.4 51.8238L1300.69 52.8471L1319.02 83.6411L1320.74 82.6178ZM1302.4 51.8238V49.8238H1301.71V51.8238V53.8238H1302.4V51.8238ZM1301.71 51.8238H1299.71V254.926H1301.71H1303.71V51.8238H1301.71ZM1301.71 254.926V252.926H1272.65V254.926V256.926H1301.71V254.926ZM1522.24 235.204L1520.88 236.674L1520.89 236.683L1522.24 235.204ZM1493.52 171.194V169.194H1491.41L1491.52 171.299L1493.52 171.194ZM1523.97 171.194L1525.96 170.999L1525.78 169.194H1523.97V171.194ZM1642.99 223.094L1644.18 224.702L1644.19 224.698L1642.99 223.094ZM1655.45 170.848L1653.66 171.742L1653.66 171.742L1655.45 170.848ZM1646.11 158.392L1644.74 159.854L1644.77 159.876L1644.79 159.897L1646.11 158.392ZM1630.19 149.396L1630.91 147.531L1630.91 147.531L1630.19 149.396ZM1610.12 142.822L1609.6 144.753L1609.61 144.755L1609.62 144.758L1610.12 142.822ZM1585.21 136.94L1584.78 138.894L1584.79 138.894L1585.21 136.94ZM1553.72 128.636L1553.05 130.517L1553.07 130.525L1553.09 130.533L1553.72 128.636ZM1528.81 116.526L1527.77 118.232L1527.77 118.232L1528.81 116.526ZM1510.13 97.1498L1508.33 98.0236L1508.34 98.0548L1508.36 98.0855L1510.13 97.1498ZM1527.08 20.3378L1528.29 21.932L1528.29 21.9292L1527.08 20.3378ZM1682.09 79.8498V81.8498H1684.38L1684.07 79.5831L1682.09 79.8498ZM1652.68 79.8498L1650.7 80.1107L1650.93 81.8498H1652.68V79.8498ZM1632.96 40.4058L1631.68 41.9449L1631.69 41.953L1631.7 41.961L1632.96 40.4058ZM1548.19 37.2918L1547.06 35.6393L1547.05 35.6454L1547.04 35.6515L1548.19 37.2918ZM1536.42 81.5798L1534.62 82.4359L1534.65 82.4945L1534.68 82.551L1536.42 81.5798ZM1545.07 92.3058L1543.76 93.8172L1543.82 93.8634L1543.87 93.9058L1545.07 92.3058ZM1559.26 99.9178L1558.52 101.775L1558.53 101.78L1558.54 101.784L1559.26 99.9178ZM1576.91 105.8L1576.37 107.726L1576.4 107.736L1576.44 107.745L1576.91 105.8ZM1598.01 110.298L1598.41 108.337L1598.39 108.335L1598.01 110.298ZM1626.38 116.872L1625.84 118.797L1625.87 118.805L1625.9 118.812L1626.38 116.872ZM1650.95 125.522L1650.15 127.355L1650.15 127.355L1650.95 125.522ZM1671.71 139.016L1670.26 140.397L1670.28 140.414L1670.3 140.43L1671.71 139.016ZM1684.51 159.084L1682.67 159.853L1682.68 159.884L1682.69 159.915L1684.51 159.084ZM1664.79 240.74L1666 242.329L1666.01 242.327L1664.79 240.74ZM1599.05 259.77V257.77C1566.15 257.77 1541.09 249.661 1523.59 233.725L1522.24 235.204L1520.89 236.683C1539.37 253.501 1565.52 261.77 1599.05 261.77V259.77ZM1522.24 235.204L1523.59 233.733C1506.25 217.743 1496.88 196.915 1495.52 171.089L1493.52 171.194L1491.52 171.299C1492.93 198.065 1502.7 219.909 1520.88 236.674L1522.24 235.204ZM1493.52 171.194V173.194H1523.97V171.194V169.194H1493.52V171.194ZM1523.97 171.194L1521.98 171.388C1524.09 192.977 1531.66 209.443 1544.92 220.479C1558.15 231.491 1576.74 236.858 1600.43 236.858V234.858V232.858C1577.3 232.858 1559.74 227.614 1547.48 217.405C1535.25 207.219 1528 191.853 1525.96 170.999L1523.97 171.194ZM1600.43 234.858V236.858C1618.48 236.858 1633.13 232.874 1644.18 224.702L1642.99 223.094L1641.8 221.485C1631.64 228.999 1617.91 232.858 1600.43 232.858V234.858ZM1642.99 223.094L1644.19 224.698C1655.6 216.202 1661.25 204.039 1661.25 188.494H1659.25H1657.25C1657.25 202.935 1652.07 213.839 1641.8 221.49L1642.99 223.094ZM1659.25 188.494H1661.25C1661.25 181.549 1659.94 175.351 1657.24 169.953L1655.45 170.848L1653.66 171.742C1656.04 176.494 1657.25 182.06 1657.25 188.494H1659.25ZM1655.45 170.848L1657.24 169.953C1654.6 164.682 1651.34 160.312 1647.42 156.887L1646.11 158.392L1644.79 159.897C1648.26 162.931 1651.22 166.864 1653.66 171.742L1655.45 170.848ZM1646.11 158.392L1647.47 156.93C1643.74 153.452 1638.17 150.341 1630.91 147.531L1630.19 149.396L1629.47 151.261C1636.51 153.987 1641.55 156.873 1644.74 159.854L1646.11 158.392ZM1630.19 149.396L1630.91 147.531C1623.7 144.74 1616.94 142.523 1610.62 140.886L1610.12 142.822L1609.62 144.758C1615.76 146.35 1622.38 148.516 1629.47 151.261L1630.19 149.396ZM1610.12 142.822L1610.64 140.891C1604.6 139.263 1596.26 137.295 1585.64 134.985L1585.21 136.94L1584.79 138.894C1595.38 141.198 1603.65 143.151 1609.6 144.753L1610.12 142.822ZM1585.21 136.94L1585.64 134.986C1572.99 132.226 1562.57 129.476 1554.36 126.738L1553.72 128.636L1553.09 130.533C1561.49 133.332 1572.06 136.117 1584.78 138.894L1585.21 136.94ZM1553.72 128.636L1554.4 126.755C1546.24 123.806 1538.06 119.831 1529.86 114.819L1528.81 116.526L1527.77 118.232C1536.18 123.37 1544.6 127.468 1553.05 130.517L1553.72 128.636ZM1528.81 116.526L1529.86 114.819C1521.83 109.913 1515.86 103.709 1511.9 96.214L1510.13 97.1498L1508.36 98.0855C1512.7 106.276 1519.19 112.989 1527.77 118.232L1528.81 116.526ZM1510.13 97.1498L1511.93 96.276C1508.17 88.5362 1506.25 79.1621 1506.25 68.0858H1504.25H1502.25C1502.25 79.6148 1504.25 89.6167 1508.33 98.0236L1510.13 97.1498ZM1504.25 68.0858H1506.25C1506.25 48.3675 1513.6 33.0604 1528.29 21.932L1527.08 20.3378L1525.88 18.7436C1510.12 30.6818 1502.25 47.2067 1502.25 68.0858H1504.25ZM1527.08 20.3378L1528.29 21.9292C1543.31 10.5015 1563.25 4.69177 1588.32 4.69177V2.69177V0.69177C1562.65 0.69177 1541.77 6.64607 1525.87 18.7464L1527.08 20.3378ZM1588.32 2.69177V4.69177C1615.83 4.69177 1637.03 11.0539 1652.19 23.5256C1667.33 35.9816 1676.7 54.7512 1680.11 80.1164L1682.09 79.8498L1684.07 79.5831C1680.57 53.5096 1670.85 33.7003 1654.73 20.4369C1638.63 7.18926 1616.41 0.69177 1588.32 0.69177V2.69177ZM1682.09 79.8498V77.8498H1652.68V79.8498V81.8498H1682.09V79.8498ZM1652.68 79.8498L1654.66 79.5889C1652.31 61.692 1645.56 48.0185 1634.22 38.8505L1632.96 40.4058L1631.7 41.961C1642.04 50.3237 1648.44 62.9462 1650.7 80.1107L1652.68 79.8498ZM1632.96 40.4058L1634.24 38.8667C1622.94 29.4911 1607.79 24.9118 1589.02 24.9118V26.9118V28.9118C1607.15 28.9118 1621.3 33.3284 1631.68 41.9449L1632.96 40.4058ZM1589.02 26.9118V24.9118C1571.7 24.9118 1557.65 28.4204 1547.06 35.6393L1548.19 37.2918L1549.32 38.9442C1559.03 32.3232 1572.2 28.9118 1589.02 28.9118V26.9118ZM1548.19 37.2918L1547.04 35.6515C1536.56 42.9668 1531.31 53.3993 1531.31 66.7018H1533.31H1535.31C1535.31 54.6309 1539.98 45.4568 1549.33 38.932L1548.19 37.2918ZM1533.31 66.7018H1531.31C1531.31 72.4919 1532.4 77.7502 1534.62 82.4359L1536.42 81.5798L1538.23 80.7236C1536.3 76.644 1535.31 71.9836 1535.31 66.7018H1533.31ZM1536.42 81.5798L1534.68 82.551C1537.09 86.8996 1540.12 90.6598 1543.76 93.8172L1545.07 92.3058L1546.38 90.7944C1543.11 87.9545 1540.37 84.564 1538.17 80.6085L1536.42 81.5798ZM1545.07 92.3058L1543.87 93.9058C1547.74 96.8083 1552.64 99.4238 1558.52 101.775L1559.26 99.9178L1560 98.0608C1554.35 95.7984 1549.79 93.3392 1546.27 90.7058L1545.07 92.3058ZM1559.26 99.9178L1558.54 101.784C1564.59 104.112 1570.54 106.093 1576.37 107.726L1576.91 105.8L1577.45 103.874C1571.74 102.277 1565.92 100.337 1559.98 98.0511L1559.26 99.9178ZM1576.91 105.8L1576.44 107.745C1582.24 109.137 1589.31 110.643 1597.63 112.261L1598.01 110.298L1598.39 108.335C1590.11 106.723 1583.1 105.23 1577.37 103.855L1576.91 105.8ZM1598.01 110.298L1597.62 112.259C1609.13 114.56 1618.53 116.74 1625.84 118.797L1626.38 116.872L1626.93 114.946C1619.48 112.851 1609.97 110.649 1598.41 108.337L1598.01 110.298ZM1626.38 116.872L1625.9 118.812C1633.15 120.624 1641.23 123.466 1650.15 127.355L1650.95 125.522L1651.75 123.688C1642.68 119.735 1634.38 116.81 1626.87 114.931L1626.38 116.872ZM1650.95 125.522L1650.15 127.355C1658.99 131.21 1665.66 135.575 1670.26 140.397L1671.71 139.016L1673.16 137.635C1668.07 132.307 1660.9 127.677 1651.75 123.688L1650.95 125.522ZM1671.71 139.016L1670.3 140.43C1675.15 145.28 1679.28 151.731 1682.67 159.853L1684.51 159.084L1686.36 158.315C1682.82 149.828 1678.42 142.901 1673.13 137.602L1671.71 139.016ZM1684.51 159.084L1682.69 159.915C1686.24 167.677 1688.05 176.839 1688.05 187.456H1690.05H1692.05C1692.05 176.39 1690.17 166.638 1686.33 158.252L1684.51 159.084ZM1690.05 187.456H1688.05C1688.05 209.486 1679.88 226.642 1663.57 239.153L1664.79 240.74L1666.01 242.327C1683.38 229.003 1692.05 210.636 1692.05 187.456H1690.05ZM1664.79 240.74L1663.58 239.15C1647.41 251.5 1625.96 257.77 1599.05 257.77V259.77V261.77C1626.58 261.77 1648.96 255.353 1666 242.329L1664.79 240.74Z" fill="#0A0A0A" mask="url(#path-1-outside-1_2177_256)"/>
</svg>
