<svg width="33" height="33" viewBox="0 0 33 33" fill="none" xmlns="http://www.w3.org/2000/svg">
<path d="M16.5029 5.84375C16.5601 5.84376 25.9656 5.846 28.3223 6.48438C29.6241 6.8313 30.6483 7.86127 30.9951 9.17383C31.6247 11.5485 31.6201 16.5 31.6201 16.5C31.6201 16.5346 31.6177 21.4599 30.9902 23.8262C30.6434 25.1335 29.6184 26.1634 28.3164 26.5156C25.9575 27.1505 16.4971 27.1504 16.4971 27.1504C16.44 27.1504 7.0291 27.1487 4.67773 26.5156C3.37587 26.1687 2.35171 25.1387 2.00488 23.8262C1.37744 21.46 1.37501 16.5346 1.375 16.5C1.375 16.5 1.37478 11.5478 2.00977 9.16797C2.35663 7.86067 3.38162 6.83069 4.68359 6.47852C7.04261 5.84361 16.5029 5.84375 16.5029 5.84375ZM13.4082 20.998L21.3154 16.5L13.4082 12.002V20.998Z" fill="white"/>
</svg>
