<svg width="28" height="28" viewBox="0 0 28 28" fill="none" xmlns="http://www.w3.org/2000/svg">
<path d="M9.79199 0.5H25.4189C26.4189 0.5 27.2293 1.31058 27.2295 2.31055V16.1104L27.2207 16.2949C27.1278 17.2082 26.3561 17.9209 25.4189 17.9209C24.4195 17.9209 23.6089 17.1103 23.6084 16.1104V7.88965C23.6084 7.68755 23.4864 7.50521 23.2998 7.42773C23.113 7.35034 22.8979 7.39313 22.7549 7.53613L3.59082 26.6992C2.88365 27.4064 1.73745 27.4064 1.03027 26.6992C0.323281 25.992 0.323159 24.8458 1.03027 24.1387L20.1943 4.97559C20.3372 4.83268 20.3799 4.61741 20.3027 4.43066C20.2254 4.24392 20.0429 4.12219 19.8408 4.12207H9.79199C8.79192 4.12197 7.98047 3.31051 7.98047 2.31055C7.98063 1.31072 8.79201 0.500103 9.79199 0.5Z" fill="#0A0A0A" stroke="#F5F6FB" stroke-linecap="round" stroke-linejoin="round"/>
</svg>
