<svg width="35" height="35" viewBox="0 0 35 35" fill="none" xmlns="http://www.w3.org/2000/svg">
<g clip-path="url(#clip0_4645_1368)">
<path d="M30.2658 10.2126V14.9759C30.2658 14.9759 26.1491 15.2002 22.89 12.4821V23.394C22.89 23.8163 22.8504 24.2253 22.7712 24.6475C22.3754 26.5871 20.7261 31.4955 14.2343 32.0629C13.9045 32.0893 13.5746 32.0893 13.2447 32.0629C11.3975 31.9046 5.86896 30.8754 4.77381 24.2253C4.64186 23.46 4.62867 22.6815 4.74742 21.9162C5.07728 19.6468 7.42592 13.4057 15.1448 14.1578V18.8947C15.1448 18.8947 11.8329 18.103 10.2232 20.6628C9.37872 22.0086 9.28636 23.6975 9.99887 25.1093C10.5398 26.1913 11.635 27.2996 13.7725 27.3788C14.6698 27.3788 17.5198 27.0621 18.1531 23.5392V2.91602H22.89C22.89 2.91602 22.89 9.75082 30.279 10.2126H30.2658Z" fill="white"/>
</g>
<defs>
<clipPath id="clip0_4645_1368">
<rect width="35" height="35" fill="white"/>
</clipPath>
</defs>
</svg>
