<svg width="20" height="37" viewBox="0 0 20 37" fill="none" xmlns="http://www.w3.org/2000/svg">
<path d="M17.9314 9.64341C17.9314 5.05748 14.2173 1.33984 9.63563 1.33984C5.054 1.33984 1.33984 5.05748 1.33984 9.64341L1.33984 18.7506C1.33984 23.3365 5.054 27.0541 9.63563 27.0541C14.2173 27.0541 17.9314 23.3365 17.9314 18.7506L17.9314 9.64341Z" stroke="#1B1B1B" stroke-width="2.67857"/>
<path d="M10.7053 6.69643C10.7053 6.10469 10.2261 5.625 9.63488 5.625C9.0437 5.625 8.56445 6.10469 8.56445 6.69643L8.56445 9.91071C8.56445 10.5024 9.0437 10.9821 9.63488 10.9821C10.2261 10.9821 10.7053 10.5024 10.7053 9.91071L10.7053 6.69643Z" fill="#1B1B1B"/>
<path d="M12.8389 33.8803C13.257 33.4618 13.257 32.7835 12.8389 32.365C12.4209 31.9466 11.7432 31.9466 11.3251 32.365L9.05441 34.6379C8.63639 35.0563 8.63639 35.7347 9.05441 36.1531C9.47244 36.5715 10.1502 36.5715 10.5682 36.1531L12.8389 33.8803Z" fill="#1B1B1B"/>
<path d="M6.64544 33.8803C6.22741 33.4618 6.22741 32.7835 6.64544 32.365C7.06347 31.9466 7.74122 31.9466 8.15925 32.365L10.43 34.6379C10.848 35.0563 10.848 35.7347 10.43 36.1531C10.0119 36.5715 9.33418 36.5715 8.91615 36.1531L6.64544 33.8803Z" fill="#1B1B1B"/>
</svg>
