<svg width="50" height="50" viewBox="0 0 50 50" fill="none" xmlns="http://www.w3.org/2000/svg">
<path d="M38.9838 37C37.0754 36.9929 35.2013 36.4686 33.5442 35.4781C31.8872 34.4876 30.5039 33.0648 29.5292 31.3485C29.061 30.527 28.3969 29.8469 27.602 29.3745C26.807 28.9022 25.9085 28.6539 24.9942 28.6539C24.08 28.6539 23.1814 28.9022 22.3865 29.3745C21.5916 29.8469 20.9275 30.527 20.4593 31.3485C19.48 33.0828 18.0824 34.5177 16.4063 35.5095C14.7303 36.5013 12.8346 37.0151 10.909 36.9996C8.98346 36.9841 7.09556 36.4398 5.43429 35.4212C3.77302 34.4026 2.39666 32.9454 1.44297 31.1955C0.489284 29.4455 -0.00827202 27.4643 0.000104032 25.45C0.00848009 23.4357 0.522494 21.459 1.4907 19.7178C2.4589 17.9766 3.84733 16.532 5.51701 15.5285C7.18669 14.5251 9.07904 13.998 11.0047 14C12.9146 14.0058 14.7906 14.5285 16.4503 15.5173C18.1099 16.5061 19.4967 17.9274 20.4757 19.643C20.9439 20.4644 21.6079 21.1446 22.4029 21.6169C23.1978 22.0892 24.0964 22.3376 25.0106 22.3376C25.9248 22.3376 26.8234 22.0892 27.6184 21.6169C28.4133 21.1446 29.0774 20.4644 29.5456 19.643C30.5263 17.9094 31.9252 16.4757 33.6022 15.4855C35.2792 14.4952 37.1754 13.9831 39.101 14.0005C41.0266 14.0178 42.9141 14.5639 44.5746 15.5842C46.235 16.6045 47.6101 18.0631 48.5622 19.8141C49.5144 21.5651 50.0101 23.5469 49.9998 25.5613C49.9896 27.5757 49.4737 29.5519 48.5038 31.2922C47.5338 33.0324 46.144 34.4756 44.4732 35.4773C42.8025 36.4791 40.9095 37.0041 38.9838 37Z" fill="#ACACAC"/>
</svg>
