<svg width="50" height="50" viewBox="0 0 50 50" fill="none" xmlns="http://www.w3.org/2000/svg">
<g clip-path="url(#clip0_4264_654)">
<path d="M36.7606 19.9711C34.518 27.6203 26.4992 32.0032 18.85 29.7606C11.2009 27.518 6.81796 19.4992 9.06054 11.85C11.3031 4.20087 19.322 -0.182029 26.9711 2.06055C34.6203 4.30313 39.0032 12.322 36.7606 19.9711Z" fill="#ACACAC"/>
<path d="M19.6301 41.1975C18.2026 46.0663 13.0984 48.8561 8.22959 47.4287C3.36074 46.0012 0.570935 40.8971 1.99838 36.0282C3.42583 31.1594 8.52999 28.3696 13.3988 29.797C18.2677 31.2245 21.0575 36.3286 19.6301 41.1975Z" fill="#ACACAC"/>
<path d="M49.449 25.0576C48.625 27.8683 45.6785 29.4788 42.8678 28.6548C40.0571 27.8307 38.4466 24.8842 39.2707 22.0735C40.0947 19.2629 43.0412 17.6524 45.8519 18.4764C48.6625 19.3005 50.273 22.247 49.449 25.0576Z" fill="#ACACAC"/>
</g>
<defs>
<clipPath id="clip0_4264_654">
<rect width="50" height="50" fill="white"/>
</clipPath>
</defs>
</svg>
