<svg width="115" height="42" viewBox="0 0 115 42" fill="none" xmlns="http://www.w3.org/2000/svg">
<path d="M3.53125 9.375L10.1875 28.3438H10.4375L17.125 9.375H20.0938L11.8125 32H8.84375L0.5625 9.375H3.53125ZM22.4925 32V15.0312H25.18V32H22.4925ZM23.8363 12.2188C22.805 12.2188 21.9613 11.4375 21.9613 10.4375C21.9613 9.4375 22.805 8.65625 23.8363 8.65625C24.8675 8.65625 25.7425 9.4375 25.7425 10.4375C25.7425 11.4375 24.8675 12.2188 23.8363 12.2188ZM36.2663 32.3438C31.36 32.3438 28.3288 28.875 28.3288 23.6562C28.3288 18.4375 31.3913 14.8125 36.0163 14.8125C39.5788 14.8125 43.3288 17 43.3288 23.2812V24.4062H31.0163C31.1413 28 33.235 29.9688 36.2663 29.9688C38.2975 29.9688 39.5788 29.0938 40.2038 28.0312H43.0788C42.2663 30.5938 39.7663 32.3438 36.2663 32.3438ZM31.0475 22.125H40.61C40.61 19.2812 38.7975 17.1875 36.0163 17.1875C33.0788 17.1875 31.2038 19.5 31.0475 22.125ZM50.3213 32L45.165 15.0312H48.0088L51.6338 27.9688H51.79L55.3838 15.0312H58.2588L61.79 27.9062H61.9775L65.6025 15.0312H68.415L63.2588 32H60.6025L56.915 19.0625H56.665L53.0088 32H50.3213Z" fill="#0A0A0A"/>
<path d="M88 33.6759L113.352 8.32422M113.352 8.32422V15.8758V23.4273V27.7425M113.352 8.32422H98.7879H96.3607H93.9334" stroke="black" stroke-width="3" stroke-linecap="round" stroke-linejoin="round"/>
</svg>
