<svg width="87" height="89" viewBox="0 0 87 89" fill="none" xmlns="http://www.w3.org/2000/svg">
<path d="M0 22.6271C0 10.1305 10.2223 0 22.8322 0L64.1678 0C76.7777 0 87 10.1305 87 22.6271C87 32.9329 80.0477 41.6295 70.5375 44.362C70.4756 44.3798 70.4325 44.436 70.4325 44.5C70.4325 44.564 70.4756 44.6202 70.5375 44.638C80.0477 47.3705 87 56.0671 87 66.3729C87 78.8695 76.7777 89 64.1678 89H22.8322C10.2223 89 0 78.8695 0 66.3729C0 56.1343 6.8618 47.4841 16.2766 44.6922C16.3623 44.6668 16.4217 44.5887 16.4217 44.5C16.4217 44.4113 16.3623 44.3332 16.2766 44.3078C6.8618 41.5159 0 32.8657 0 22.6271Z" fill="#0ECB7B"/>
</svg>
