<svg width="1518" height="1025" viewBox="0 0 1518 1025" fill="none" xmlns="http://www.w3.org/2000/svg">
<rect width="1518" height="1025" fill="black"/>
<path d="M588.523 919V61H833.323L954.523 491.8C963.323 523.8 972.123 559.4 980.923 598.6C990.523 637 997.723 667.4 1002.52 689.8L1008.52 723.4H1010.92C1026.12 641 1043.72 563.8 1063.72 491.8L1184.92 61H1433.32V919H1271.32V427L1278.52 249.4H1276.12C1263.32 316.6 1250.92 371 1238.92 412.6L1091.32 919H924.523L780.523 412.6L743.323 249.4H740.923C745.723 321.4 748.123 380.6 748.123 427V919H588.523Z" fill="#F5F6FB"/>
<path d="M271 919V345.4H85V237.4C208.2 232.6 277.4 183.8 292.6 91H435.4V919H271Z" fill="#F5F6FB"/>
</svg>
