<svg width="34" height="34" viewBox="0 0 34 34" fill="none" xmlns="http://www.w3.org/2000/svg">
<path d="M16.9998 12.5137C14.5749 12.5137 12.5137 14.5749 12.5137 16.9998C12.5137 19.4247 14.5749 21.4859 16.9998 21.4859C19.4247 21.4859 21.4859 19.4247 21.4859 16.9998C21.4859 14.5749 19.4247 12.5137 16.9998 12.5137Z" fill="white"/>
<path d="M22.7497 3.54102H11.3713C6.96677 3.54102 3.54102 6.96677 3.54102 11.249V22.6274C3.54102 27.0319 6.96677 30.4577 11.3713 30.4577H22.7497C27.0319 30.4577 30.4577 27.0319 30.4577 22.6274V11.249C30.4577 6.96677 27.0319 3.54102 22.7497 3.54102ZM16.9993 24.0956C13.0842 24.0956 10.0255 20.9145 10.0255 17.1217C10.0255 13.3289 13.0842 10.0255 16.9993 10.0255C20.9145 10.0255 23.9732 13.2065 23.9732 16.9993C23.9732 20.7922 20.9145 24.0956 16.9993 24.0956ZM24.2179 11.4937C23.3615 11.4937 22.6274 10.7596 22.6274 9.90314C22.6274 9.0467 23.3615 8.31261 24.2179 8.31261C25.0743 8.31261 25.8084 9.0467 25.8084 9.90314C25.8084 10.7596 25.0743 11.4937 24.2179 11.4937Z" fill="white"/>
</svg>
