<svg width="28" height="28" viewBox="0 0 28 28" fill="none" xmlns="http://www.w3.org/2000/svg">
<path d="M13.9991 10.3066C12.0021 10.3066 10.3047 12.0041 10.3047 14.0011C10.3047 15.9981 12.0021 17.6955 13.9991 17.6955C15.9961 17.6955 17.6936 15.9981 17.6936 14.0011C17.6936 12.0041 15.9961 10.3066 13.9991 10.3066Z" fill="#979393"/>
<path d="M18.735 2.91602H9.3645C5.73723 2.91602 2.91602 5.73723 2.91602 9.26374V18.6342C2.91602 22.2615 5.73723 25.0827 9.3645 25.0827H18.735C22.2615 25.0827 25.0827 22.2615 25.0827 18.6342V9.26374C25.0827 5.73723 22.2615 2.91602 18.735 2.91602ZM13.9993 19.8433C10.7751 19.8433 8.25617 17.2236 8.25617 14.1001C8.25617 10.9766 10.7751 8.25617 13.9993 8.25617C17.2236 8.25617 19.7425 10.8759 19.7425 13.9993C19.7425 17.1228 17.2236 19.8433 13.9993 19.8433ZM19.944 9.46526C19.2387 9.46526 18.6342 8.86071 18.6342 8.15541C18.6342 7.45011 19.2387 6.84556 19.944 6.84556C20.6493 6.84556 21.2539 7.45011 21.2539 8.15541C21.2539 8.86071 20.6493 9.46526 19.944 9.46526Z" fill="#979393"/>
</svg>
