<svg width="130" height="26" viewBox="0 0 130 26" fill="none" xmlns="http://www.w3.org/2000/svg">
<path d="M11.0879 3.06933C11.9258 1.67704 13.9443 1.67704 14.7822 3.06932L16.7218 6.29229C17.0228 6.79248 17.5138 7.1492 18.0826 7.28092L21.7472 8.12965C23.3302 8.49629 23.954 10.416 22.8888 11.6431L20.4229 14.4838C20.0402 14.9246 19.8527 15.5018 19.9032 16.0834L20.2284 19.8309C20.3689 21.4498 18.7359 22.6362 17.2396 22.0024L13.776 20.535C13.2385 20.3073 12.6316 20.3073 12.0941 20.535L8.6305 22.0024C7.13427 22.6362 5.50126 21.4498 5.64176 19.8309L5.96699 16.0834C6.01747 15.5018 5.82992 14.9246 5.44724 14.4838L2.98139 11.6431C1.91617 10.416 2.53992 8.49629 4.12299 8.12965L7.78759 7.28092C8.35631 7.1492 8.8473 6.79248 9.14831 6.29229L11.0879 3.06933Z" fill="#0A0A0A"/>
<path d="M36.958 3.06933C37.7959 1.67704 39.8144 1.67704 40.6523 3.06932L42.5919 6.29229C42.893 6.79248 43.384 7.1492 43.9527 7.28092L47.6173 8.12965C49.2003 8.49629 49.8241 10.416 48.7589 11.6431L46.293 14.4838C45.9103 14.9246 45.7228 15.5018 45.7733 16.0834L46.0985 19.8309C46.239 21.4498 44.606 22.6362 43.1098 22.0024L39.6462 20.535C39.1086 20.3073 38.5017 20.3073 37.9642 20.535L34.5006 22.0024C33.0044 22.6362 31.3714 21.4498 31.5119 19.8309L31.8371 16.0834C31.8876 15.5018 31.7 14.9246 31.3174 14.4838L28.8515 11.6431C27.7863 10.416 28.41 8.49629 29.9931 8.12965L33.6577 7.28092C34.2264 7.1492 34.7174 6.79248 35.0184 6.29229L36.958 3.06933Z" fill="#0A0A0A"/>
<path d="M62.8282 3.06933C63.666 1.67704 65.6846 1.67704 66.5225 3.06932L68.4621 6.29229C68.7631 6.79248 69.2541 7.1492 69.8228 7.28092L73.4874 8.12965C75.0705 8.49629 75.6942 10.416 74.629 11.6431L72.1631 14.4838C71.7805 14.9246 71.5929 15.5018 71.6434 16.0834L71.9686 19.8309C72.1091 21.4498 70.4761 22.6362 68.9799 22.0024L65.5163 20.535C64.9788 20.3073 64.3719 20.3073 63.8343 20.535L60.3707 22.0024C58.8745 22.6362 57.2415 21.4498 57.382 19.8309L57.7072 16.0834C57.7577 15.5018 57.5702 14.9246 57.1875 14.4838L54.7216 11.6431C53.6564 10.416 54.2802 8.49629 55.8632 8.12965L59.5278 7.28092C60.0965 7.1492 60.5875 6.79248 60.8885 6.29229L62.8282 3.06933Z" fill="#0A0A0A"/>
<path d="M88.6983 3.06933C89.5362 1.67704 91.5547 1.67704 92.3926 3.06932L94.3322 6.29229C94.6332 6.79248 95.1242 7.1492 95.6929 7.28092L99.3575 8.12965C100.941 8.49629 101.564 10.416 100.499 11.6431L98.0333 14.4838C97.6506 14.9246 97.463 15.5018 97.5135 16.0834L97.8387 19.8309C97.9792 21.4498 96.3462 22.6362 94.85 22.0024L91.3864 20.535C90.8489 20.3073 90.242 20.3073 89.7045 20.535L86.2409 22.0024C84.7446 22.6362 83.1116 21.4498 83.2521 19.8309L83.5773 16.0834C83.6278 15.5018 83.4403 14.9246 83.0576 14.4838L80.5917 11.6431C79.5265 10.416 80.1503 8.49629 81.7333 8.12965L85.3979 7.28092C85.9667 7.1492 86.4577 6.79248 86.7587 6.29229L88.6983 3.06933Z" fill="#0A0A0A"/>
<path d="M114.568 3.06933C115.406 1.67704 117.425 1.67704 118.263 3.06932L120.202 6.29229C120.503 6.79248 120.994 7.1492 121.563 7.28092L125.228 8.12965C126.811 8.49629 127.434 10.416 126.369 11.6431L123.903 14.4838C123.521 14.9246 123.333 15.5018 123.384 16.0834L123.709 19.8309C123.849 21.4498 122.216 22.6362 120.72 22.0024L117.257 20.535C116.719 20.3073 116.112 20.3073 115.575 20.535L112.111 22.0024C110.615 22.6362 108.982 21.4498 109.122 19.8309L109.447 16.0834C109.498 15.5018 109.31 14.9246 108.928 14.4838L106.462 11.6431C105.397 10.416 106.02 8.49629 107.603 8.12965L111.268 7.28092C111.837 7.1492 112.328 6.79248 112.629 6.29229L114.568 3.06933Z" fill="#0A0A0A"/>
</svg>
