<svg width="29" height="29" viewBox="0 0 29 29" fill="none" xmlns="http://www.w3.org/2000/svg">
<g clip-path="url(#clip0_4645_1368)">
<path d="M25.0784 8.46178V12.4085C25.0784 12.4085 21.6674 12.5943 18.9671 10.3422V19.3835C18.9671 19.7334 18.9343 20.0723 18.8687 20.4221C18.5407 22.0292 17.1741 26.0962 11.7952 26.5663C11.5219 26.5881 11.2486 26.5881 10.9753 26.5663C9.4447 26.4351 4.86391 25.5823 3.9565 20.0723C3.84717 19.4382 3.83624 18.7932 3.93463 18.1591C4.20795 16.2786 6.15397 11.1075 12.5496 11.7307V15.6555C12.5496 15.6555 9.80548 14.9995 8.47169 17.1205C7.772 18.2356 7.69547 19.635 8.28584 20.8048C8.73408 21.7012 9.64149 22.6196 11.4126 22.6852C12.156 22.6852 14.5175 22.4228 15.0422 19.5038V2.41602H18.9671C18.9671 2.41602 18.9671 8.07914 25.0893 8.46178H25.0784Z" fill="#979393"/>
</g>
<defs>
<clipPath id="clip0_4645_1368">
<rect width="29" height="29" fill="white"/>
</clipPath>
</defs>
</svg>
