<svg width="27" height="27" viewBox="0 0 27 27" fill="none" xmlns="http://www.w3.org/2000/svg">
<path d="M13.502 4.78125C13.502 4.78125 21.2388 4.78079 23.1729 5.30469C24.238 5.58851 25.0756 6.43192 25.3594 7.50586C25.8745 9.44873 25.8711 13.5 25.8711 13.5C25.8711 13.5283 25.8688 17.5581 25.3555 19.4941C25.0717 20.5638 24.2332 21.4062 23.168 21.6943C21.2441 22.2122 13.5465 22.2139 13.498 22.2139C13.498 22.2139 5.75685 22.2139 3.82715 21.6943C2.76208 21.4105 1.9244 20.568 1.64062 19.4941C1.12726 17.5582 1.12501 13.5283 1.125 13.5C1.125 13.5 1.125 9.44815 1.64453 7.50098C1.92836 6.43143 2.76682 5.58891 3.83203 5.30078C5.75598 4.78293 13.4535 4.78126 13.502 4.78125ZM10.9697 17.1807L17.4404 13.5L10.9697 9.81934V17.1807Z" fill="#979393"/>
</svg>
