<svg width="1518" height="962" viewBox="0 0 1518 962" fill="none" xmlns="http://www.w3.org/2000/svg">
<g clip-path="url(#clip0_2521_237)">
<g filter="url(#filter0_g_2521_237)">
<path d="M588.523 910V52H833.323L954.523 482.8C963.323 514.8 972.123 550.4 980.923 589.6C990.523 628 997.723 658.4 1002.52 680.8L1008.52 714.4H1010.92C1026.12 632 1043.72 554.8 1063.72 482.8L1184.92 52H1433.32V910H1271.32V418L1278.52 240.4H1276.12C1263.32 307.6 1250.92 362 1238.92 403.6L1091.32 910H924.523L780.523 403.6L743.323 240.4H740.923C745.723 312.4 748.123 371.6 748.123 418V910H588.523Z" fill="#F5F6FB"/>
<path d="M271 910V336.4H85V228.4C208.2 223.6 277.4 174.8 292.6 82H435.4V910H271Z" fill="#F5F6FB"/>
</g>
</g>
<defs>
<filter id="filter0_g_2521_237" x="-15" y="-48" width="1548.32" height="1058" filterUnits="userSpaceOnUse" color-interpolation-filters="sRGB">
<feFlood flood-opacity="0" result="BackgroundImageFix"/>
<feBlend mode="normal" in="SourceGraphic" in2="BackgroundImageFix" result="shape"/>
<feTurbulence type="fractalNoise" baseFrequency="2 2" numOctaves="3" seed="3703" />
<feDisplacementMap in="shape" scale="200" xChannelSelector="R" yChannelSelector="G" result="displacedImage" width="100%" height="100%" />
<feMerge result="effect1_texture_2521_237">
<feMergeNode in="displacedImage"/>
</feMerge>
</filter>
<clipPath id="clip0_2521_237">
<rect width="1518" height="962" fill="white"/>
</clipPath>
</defs>
</svg>
