<svg width="20" height="20" viewBox="0 0 20 20" fill="none" xmlns="http://www.w3.org/2000/svg">
<path d="M0 5.08475C0 2.27652 2.34996 0 5.24877 0L14.7512 0C17.65 0 20 2.27652 20 5.08475C20 7.40066 18.4018 9.35495 16.2155 9.969C16.2013 9.973 16.1914 9.98563 16.1914 10C16.1914 10.0144 16.2013 10.027 16.2155 10.031C18.4018 10.6451 20 12.5993 20 14.9152C20 17.7235 17.65 20 14.7512 20H5.24877C2.34996 20 0 17.7235 0 14.9152C0 12.6145 1.57743 10.6706 3.74174 10.0432C3.76146 10.0375 3.77511 10.0199 3.77511 10C3.77511 9.98006 3.76146 9.96251 3.74174 9.9568C1.57743 9.32942 0 7.38554 0 5.08475Z" fill="#0ECB7B"/>
</svg>
