<svg width="185" height="47" viewBox="0 0 185 47" fill="none" xmlns="http://www.w3.org/2000/svg">
<path d="M7.524 11.664V10.908H15.192V36H7.524V19.944H0.72V14.688H3.888C4.86 14.688 7.524 14.724 7.524 11.664ZM35.4544 23.544L41.0704 10.908H52.9144V36H43.9864V23.148L39.4504 33.624H31.6744L27.0664 23.148V36H18.1744V10.908H29.9464L35.4544 23.544ZM64.7204 36H55.7204V10.908H64.7204V36ZM88.1961 36H67.5681V10.908H76.4601V28.656H88.1961V36ZM110.45 36H89.822V10.908H98.714V28.656H110.45V36ZM121.076 36H112.076V10.908H121.076V36ZM138.612 36.792C128.676 36.792 122.916 31.536 122.916 23.472C122.916 15.408 128.676 10.116 138.612 10.116C148.656 10.116 154.272 15.3 154.272 23.472C154.272 31.536 148.512 36.792 138.612 36.792ZM138.612 29.448C143.184 29.448 145.308 27.108 145.308 23.472C145.308 19.8 143.184 17.46 138.612 17.46C134.04 17.46 131.808 19.764 131.808 23.472C131.808 27.18 134.04 29.448 138.612 29.448ZM174.591 22.896V10.908H183.591V36H175.455L165.159 23.832V36H156.267V10.908H164.367L174.591 22.896Z" fill="#0A0A0A"/>
</svg>
