<svg width="72" height="72" viewBox="0 0 72 72" fill="none" xmlns="http://www.w3.org/2000/svg">
<circle cx="36" cy="36" r="36" fill="#F5F6FB" fill-opacity="0.2"/>
<circle cx="36" cy="36" r="35.6024" stroke="white" stroke-opacity="0.22" stroke-width="0.795111"/>
<path d="M46 37.6195C45.9996 38.5397 45.2535 39.2862 44.3333 39.2862C43.4131 39.2862 42.6671 38.5397 42.6666 37.6195V31.6901L28.8449 45.5118C28.1941 46.1627 27.139 46.1627 26.4882 45.5118C25.8373 44.861 25.8373 43.8059 26.4882 43.1551L40.3099 29.3334H33.0621C32.1417 29.3333 31.3954 28.5871 31.3954 27.6667C31.3954 26.7463 32.1417 26.0001 33.0621 26H44.3333C45.2538 26 46 26.7462 46 27.6667V37.6195Z" fill="#F5F6FB"/>
</svg>
