<svg width="68" height="62" viewBox="0 0 68 62" fill="none" xmlns="http://www.w3.org/2000/svg">
<path d="M48.4156 25.1177C45.8519 33.8623 36.6846 38.8729 27.94 36.3092C19.1954 33.7454 14.1848 24.5782 16.7485 15.8335C19.3123 7.08892 28.4795 2.07833 37.2242 4.64208C45.9688 7.20582 50.9794 16.3731 48.4156 25.1177Z" fill="#ACACAC"/>
<path d="M24.2042 50.8389C22.495 56.6686 16.3835 60.009 10.5538 58.2999C4.72401 56.5907 1.38362 50.4792 3.09278 44.6494C4.80195 38.8197 10.9134 35.4793 16.7432 37.1885C22.5729 38.8976 25.9133 45.0091 24.2042 50.8389Z" fill="#ACACAC"/>
<path d="M65.6931 30.1761C64.6831 33.621 61.0718 35.5948 57.6269 34.5849C54.1821 33.5749 52.2082 29.9636 53.2182 26.5187C54.2281 23.0739 57.8395 21.1 61.2843 22.1099C64.7292 23.1199 66.7031 26.7312 65.6931 30.1761Z" fill="#ACACAC"/>
</svg>
