<svg width="78" height="34" viewBox="0 0 78 34" fill="none" xmlns="http://www.w3.org/2000/svg">
<path d="M60.0756 34C57.1346 33.9895 54.2465 33.2144 51.693 31.7502C49.1395 30.2861 47.0077 28.1828 45.5056 25.6456C44.7841 24.4313 43.7608 23.4258 42.5357 22.7276C41.3107 22.0293 39.926 21.6622 38.5171 21.6622C37.1082 21.6622 35.7235 22.0293 34.4985 22.7276C33.2734 23.4258 32.2501 24.4313 31.5286 25.6456C30.0194 28.2095 27.8656 30.3306 25.2828 31.7967C22.6999 33.2628 19.7786 34.0224 16.8112 33.9995C13.8439 33.9766 10.9345 33.172 8.37445 31.6662C5.81437 30.1604 3.69334 28.0063 2.22367 25.4194C0.754006 22.8326 -0.0127475 19.9037 0.000160317 16.9261C0.0130681 13.9484 0.805184 11.0263 2.29722 8.4524C3.78926 5.87846 5.92888 3.74293 8.50192 2.25956C11.075 0.776181 13.9912 -0.00299773 16.9586 8.66708e-06C19.9019 0.00850384 22.793 0.781207 25.3505 2.24296C27.9081 3.70472 30.0451 5.80578 31.5538 8.34178C32.2753 9.55606 33.2987 10.5615 34.5237 11.2598C35.7487 11.958 37.1335 12.3251 38.5423 12.3251C39.9512 12.3251 41.3359 11.958 42.561 11.2598C43.786 10.5615 44.8094 9.55606 45.5309 8.34178C47.0423 5.7791 49.198 3.65977 51.7823 2.19592C54.3666 0.732065 57.2887 -0.0249418 60.2562 0.000673623C63.2237 0.026289 66.1324 0.833628 68.6912 2.34187C71.25 3.85012 73.3691 6.00636 74.8363 8.59475C76.3036 11.1831 77.0675 14.1129 77.0517 17.0907C77.0359 20.0684 76.2409 22.9898 74.7462 25.5624C73.2515 28.1349 71.1096 30.2684 68.535 31.7492C65.9603 33.23 63.0432 34.0061 60.0756 34Z" fill="#ACACAC"/>
</svg>
