<svg width="508" height="75" viewBox="0 0 508 75" fill="none" xmlns="http://www.w3.org/2000/svg">
<path d="M18.9 4.29843V2.19843H40.2V71.8984H18.9V27.2984H1.41561e-07V12.6984H8.8C11.5 12.6984 18.9 12.7984 18.9 4.29843ZM96.4844 37.2984L112.084 2.19843H144.984V71.8984H120.184V36.1984L107.584 65.2984H85.9844L73.1844 36.1984V71.8984H48.4844V2.19843H81.1844L96.4844 37.2984ZM177.779 71.8984H152.779V2.19843H177.779V71.8984ZM242.989 71.8984H185.689V2.19843H210.389V51.4984H242.989V71.8984ZM304.805 71.8984H247.505V2.19843H272.205V51.4984H304.805V71.8984ZM334.322 71.8984H309.322V2.19843H334.322V71.8984ZM383.032 74.0984C355.432 74.0984 339.432 59.4984 339.432 37.0984C339.432 14.6984 355.432 -0.00156665 383.032 -0.00156665C410.932 -0.00156665 426.532 14.3984 426.532 37.0984C426.532 59.4984 410.532 74.0984 383.032 74.0984ZM383.032 53.6984C395.732 53.6984 401.632 47.1984 401.632 37.0984C401.632 26.8984 395.732 20.3984 383.032 20.3984C370.332 20.3984 364.132 26.7984 364.132 37.0984C364.132 47.3984 370.332 53.6984 383.032 53.6984ZM482.976 35.4984V2.19843H507.976V71.8984H485.376L456.776 38.0984V71.8984H432.076V2.19843H454.576L482.976 35.4984Z" fill="#F5F6FB"/>
</svg>
