<svg width="210" height="71" viewBox="0 0 210 71" fill="none" xmlns="http://www.w3.org/2000/svg">
<g filter="url(#filter0_ii_2249_256)">
<rect y="4.80957" width="207.404" height="60.4035" rx="30.2018" fill="#E2E2EA" fill-opacity="0.24"/>
<rect x="0.5" y="5.30957" width="206.404" height="59.4035" rx="29.7018" stroke="white" stroke-opacity="0.2"/>
<path d="M31.4453 27.8711H36.6211C37.5977 27.8711 38.4212 28.0306 39.0918 28.3496C39.7624 28.6686 40.2637 29.1081 40.5957 29.668C40.9277 30.2279 41.0938 30.8659 41.0938 31.582C41.0938 32.4089 40.8724 33.0697 40.4297 33.5645C39.9935 34.0527 39.4206 34.388 38.7109 34.5703V34.707C39.1992 34.7331 39.668 34.8893 40.1172 35.1758C40.5664 35.4622 40.931 35.8659 41.2109 36.3867C41.4974 36.901 41.6406 37.5065 41.6406 38.2031C41.6406 38.9453 41.4681 39.6029 41.123 40.1758C40.778 40.7487 40.2474 41.1979 39.5312 41.5234C38.8151 41.849 37.9232 42.0117 36.8555 42.0117H31.4453V27.8711ZM36.6602 40.1758C37.6302 40.1693 38.3464 39.9805 38.8086 39.6094C39.2773 39.2318 39.5117 38.7305 39.5117 38.1055C39.5117 37.6497 39.3978 37.2363 39.1699 36.8652C38.9421 36.4941 38.6165 36.2012 38.1934 35.9863C37.7767 35.7715 37.2917 35.6641 36.7383 35.6641H33.5938V40.1758H36.6602ZM36.4453 33.9844C36.9206 33.9779 37.3503 33.8835 37.7344 33.7012C38.125 33.5189 38.431 33.2617 38.6523 32.9297C38.8737 32.5911 38.9844 32.2005 38.9844 31.7578C38.9844 31.1458 38.7695 30.651 38.3398 30.2734C37.9167 29.8958 37.2982 29.707 36.4844 29.707H33.5938V33.9844H36.4453ZM48.2617 42.2266C47.2721 42.2266 46.3997 41.9987 45.6445 41.543C44.8958 41.0872 44.3164 40.4492 43.9062 39.6289C43.5026 38.8021 43.3008 37.8451 43.3008 36.7578C43.3008 35.6706 43.5026 34.7135 43.9062 33.8867C44.3164 33.0534 44.8958 32.4089 45.6445 31.9531C46.3997 31.4974 47.2721 31.2695 48.2617 31.2695C49.2448 31.2695 50.1107 31.4974 50.8594 31.9531C51.6081 32.4089 52.1842 33.0534 52.5879 33.8867C52.998 34.7135 53.2031 35.6706 53.2031 36.7578C53.2031 37.8451 52.998 38.8021 52.5879 39.6289C52.1842 40.4492 51.6081 41.0872 50.8594 41.543C50.1107 41.9987 49.2448 42.2266 48.2617 42.2266ZM45.3906 36.7578C45.3906 37.4544 45.498 38.0859 45.7129 38.6523C45.9277 39.2122 46.25 39.6582 46.6797 39.9902C47.1094 40.3223 47.6367 40.4883 48.2617 40.4883C48.8737 40.4883 49.3913 40.3223 49.8145 39.9902C50.2441 39.6582 50.5632 39.2122 50.7715 38.6523C50.9863 38.0859 51.0938 37.4544 51.0938 36.7578C51.0938 36.0612 50.9863 35.4297 50.7715 34.8633C50.5632 34.2904 50.2441 33.8346 49.8145 33.4961C49.3913 33.1576 48.8737 32.9883 48.2617 32.9883C47.6367 32.9883 47.1094 33.1576 46.6797 33.4961C46.25 33.8346 45.9277 34.2904 45.7129 34.8633C45.498 35.4297 45.3906 36.0612 45.3906 36.7578ZM59.7461 42.2266C58.7565 42.2266 57.8841 41.9987 57.1289 41.543C56.3802 41.0872 55.8008 40.4492 55.3906 39.6289C54.987 38.8021 54.7852 37.8451 54.7852 36.7578C54.7852 35.6706 54.987 34.7135 55.3906 33.8867C55.8008 33.0534 56.3802 32.4089 57.1289 31.9531C57.8841 31.4974 58.7565 31.2695 59.7461 31.2695C60.7292 31.2695 61.5951 31.4974 62.3438 31.9531C63.0924 32.4089 63.6686 33.0534 64.0723 33.8867C64.4824 34.7135 64.6875 35.6706 64.6875 36.7578C64.6875 37.8451 64.4824 38.8021 64.0723 39.6289C63.6686 40.4492 63.0924 41.0872 62.3438 41.543C61.5951 41.9987 60.7292 42.2266 59.7461 42.2266ZM56.875 36.7578C56.875 37.4544 56.9824 38.0859 57.1973 38.6523C57.4121 39.2122 57.7344 39.6582 58.1641 39.9902C58.5938 40.3223 59.1211 40.4883 59.7461 40.4883C60.3581 40.4883 60.8757 40.3223 61.2988 39.9902C61.7285 39.6582 62.0475 39.2122 62.2559 38.6523C62.4707 38.0859 62.5781 37.4544 62.5781 36.7578C62.5781 36.0612 62.4707 35.4297 62.2559 34.8633C62.0475 34.2904 61.7285 33.8346 61.2988 33.4961C60.8757 33.1576 60.3581 32.9883 59.7461 32.9883C59.1211 32.9883 58.5938 33.1576 58.1641 33.4961C57.7344 33.8346 57.4121 34.2904 57.1973 34.8633C56.9824 35.4297 56.875 36.0612 56.875 36.7578ZM66.7383 27.8711H68.8281V35.8789H69.0039L73.2031 31.4062H75.7031L71.416 35.957L75.9961 42.0117H73.4375L69.834 37.2461L68.8281 38.2422V42.0117H66.7383V27.8711ZM91.9727 32.4805C91.862 31.888 91.6309 31.377 91.2793 30.9473C90.9342 30.5176 90.5046 30.1921 89.9902 29.9707C89.4824 29.7493 88.9258 29.6419 88.3203 29.6484C87.5 29.6419 86.7676 29.847 86.123 30.2637C85.485 30.6738 84.9805 31.2793 84.6094 32.0801C84.2448 32.8743 84.0625 33.8281 84.0625 34.9414C84.0625 36.0612 84.2448 37.0215 84.6094 37.8223C84.9805 38.6165 85.485 39.2188 86.123 39.6289C86.7676 40.0391 87.5 40.2409 88.3203 40.2344C88.9193 40.2409 89.4727 40.1367 89.9805 39.9219C90.4883 39.7005 90.9147 39.3783 91.2598 38.9551C91.6113 38.5319 91.849 38.0273 91.9727 37.4414L94.1406 37.4609C93.9909 38.3854 93.6491 39.209 93.1152 39.9316C92.5879 40.6478 91.9076 41.2077 91.0742 41.6113C90.2474 42.0085 89.3229 42.207 88.3008 42.207C87.0703 42.207 85.9733 41.9141 85.0098 41.3281C84.0462 40.7422 83.291 39.9023 82.7441 38.8086C82.2038 37.7083 81.9336 36.4193 81.9336 34.9414C81.9336 33.4635 82.207 32.1777 82.7539 31.084C83.3008 29.9837 84.056 29.1406 85.0195 28.5547C85.9831 27.9688 87.0768 27.6758 88.3008 27.6758C89.2969 27.6758 90.2083 27.8678 91.0352 28.252C91.862 28.6296 92.5456 29.1797 93.0859 29.9023C93.6328 30.625 93.9844 31.4844 94.1406 32.4805H91.9727ZM98.3789 42.0117H96.2891V27.8711H98.3789V42.0117ZM100.43 39.0234C100.423 37.9232 100.791 37.1387 101.533 36.6699C102.282 36.2012 103.236 35.9245 104.395 35.8398C105.898 35.7552 106.826 35.7064 107.178 35.6934L107.168 34.8438C107.174 34.2383 106.992 33.7728 106.621 33.4473C106.257 33.1152 105.723 32.9492 105.02 32.9492C104.427 32.9492 103.942 33.0729 103.564 33.3203C103.187 33.5612 102.943 33.8867 102.832 34.2969H100.762C100.827 33.7109 101.045 33.1901 101.416 32.7344C101.787 32.2721 102.288 31.9141 102.92 31.6602C103.551 31.3997 104.277 31.2695 105.098 31.2695C105.768 31.2695 106.413 31.3737 107.031 31.582C107.656 31.7839 108.184 32.1615 108.613 32.7148C109.043 33.2617 109.258 34.0104 109.258 34.9609V42.0117H107.227V40.5664H107.148C106.908 41.0286 106.523 41.4258 105.996 41.7578C105.469 42.0833 104.805 42.2461 104.004 42.2461C103.327 42.2461 102.715 42.1191 102.168 41.8652C101.628 41.6113 101.201 41.2435 100.889 40.7617C100.583 40.2734 100.43 39.694 100.43 39.0234ZM102.461 39.043C102.461 39.5378 102.643 39.9186 103.008 40.1855C103.379 40.446 103.867 40.5794 104.473 40.5859C105.02 40.5859 105.498 40.4753 105.908 40.2539C106.318 40.0326 106.634 39.7396 106.855 39.375C107.077 39.0039 107.188 38.6068 107.188 38.1836L107.178 37.2168L104.688 37.3828C103.978 37.4349 103.428 37.5977 103.037 37.8711C102.653 38.1445 102.461 38.5352 102.461 39.043ZM117.734 34.2969C117.637 33.8607 117.415 33.5221 117.07 33.2812C116.732 33.0339 116.283 32.9102 115.723 32.9102C115.332 32.9102 114.984 32.972 114.678 33.0957C114.372 33.2194 114.131 33.3887 113.955 33.6035C113.779 33.8184 113.691 34.0592 113.691 34.3262C113.691 34.6452 113.822 34.9186 114.082 35.1465C114.349 35.3743 114.772 35.5534 115.352 35.6836L117.031 36.0742C118.008 36.2956 118.734 36.6439 119.209 37.1191C119.691 37.5879 119.935 38.1966 119.941 38.9453C119.935 39.5833 119.756 40.153 119.404 40.6543C119.059 41.1491 118.561 41.5365 117.91 41.8164C117.259 42.0898 116.491 42.2266 115.605 42.2266C114.342 42.2266 113.34 41.9596 112.598 41.4258C111.855 40.8854 111.419 40.1172 111.289 39.1211H113.418C113.607 40.0716 114.316 40.5469 115.547 40.5469C116.237 40.5469 116.784 40.4199 117.188 40.166C117.598 39.9056 117.806 39.5508 117.812 39.1016C117.806 38.7565 117.669 38.4733 117.402 38.252C117.142 38.0241 116.732 37.8451 116.172 37.7148L114.512 37.3633C113.561 37.1549 112.839 36.8034 112.344 36.3086C111.849 35.8073 111.602 35.1888 111.602 34.4531C111.602 33.8281 111.771 33.2747 112.109 32.793C112.454 32.3112 112.936 31.9368 113.555 31.6699C114.18 31.403 114.896 31.2695 115.703 31.2695C116.478 31.2695 117.158 31.3932 117.744 31.6406C118.33 31.888 118.792 32.2396 119.131 32.6953C119.469 33.151 119.674 33.6849 119.746 34.2969H117.734ZM127.93 34.2969C127.832 33.8607 127.611 33.5221 127.266 33.2812C126.927 33.0339 126.478 32.9102 125.918 32.9102C125.527 32.9102 125.179 32.972 124.873 33.0957C124.567 33.2194 124.326 33.3887 124.15 33.6035C123.975 33.8184 123.887 34.0592 123.887 34.3262C123.887 34.6452 124.017 34.9186 124.277 35.1465C124.544 35.3743 124.967 35.5534 125.547 35.6836L127.227 36.0742C128.203 36.2956 128.929 36.6439 129.404 37.1191C129.886 37.5879 130.13 38.1966 130.137 38.9453C130.13 39.5833 129.951 40.153 129.6 40.6543C129.255 41.1491 128.757 41.5365 128.105 41.8164C127.454 42.0898 126.686 42.2266 125.801 42.2266C124.538 42.2266 123.535 41.9596 122.793 41.4258C122.051 40.8854 121.615 40.1172 121.484 39.1211H123.613C123.802 40.0716 124.512 40.5469 125.742 40.5469C126.432 40.5469 126.979 40.4199 127.383 40.166C127.793 39.9056 128.001 39.5508 128.008 39.1016C128.001 38.7565 127.865 38.4733 127.598 38.252C127.337 38.0241 126.927 37.8451 126.367 37.7148L124.707 37.3633C123.757 37.1549 123.034 36.8034 122.539 36.3086C122.044 35.8073 121.797 35.1888 121.797 34.4531C121.797 33.8281 121.966 33.2747 122.305 32.793C122.65 32.3112 123.132 31.9368 123.75 31.6699C124.375 31.403 125.091 31.2695 125.898 31.2695C126.673 31.2695 127.354 31.3932 127.939 31.6406C128.525 31.888 128.988 32.2396 129.326 32.6953C129.665 33.151 129.87 33.6849 129.941 34.2969H127.93Z" fill="#707070"/>
<g filter="url(#filter1_d_2249_256)">
<rect x="147.406" y="4.80957" width="60" height="60" rx="30" transform="rotate(0.386641 147.406 4.80957)" fill="white" shape-rendering="crispEdges"/>
<path d="M172 39.8096C176.299 35.511 177.701 34.1081 182 29.8096M182 29.8096H175.237M182 29.8096V35.7808" stroke="#707070" stroke-width="2" stroke-linecap="round" stroke-linejoin="round"/>
</g>
</g>
<defs>
<filter id="filter0_ii_2249_256" x="-3.51675" y="1.29282" width="214.44" height="67.4368" filterUnits="userSpaceOnUse" color-interpolation-filters="sRGB">
<feFlood flood-opacity="0" result="BackgroundImageFix"/>
<feBlend mode="normal" in="SourceGraphic" in2="BackgroundImageFix" result="shape"/>
<feColorMatrix in="SourceAlpha" type="matrix" values="0 0 0 0 0 0 0 0 0 0 0 0 0 0 0 0 0 0 127 0" result="hardAlpha"/>
<feOffset dx="3.51675" dy="3.51675"/>
<feGaussianBlur stdDeviation="8.79187"/>
<feComposite in2="hardAlpha" operator="arithmetic" k2="-1" k3="1"/>
<feColorMatrix type="matrix" values="0 0 0 0 0 0 0 0 0 0 0 0 0 0 0 0 0 0 0.14 0"/>
<feBlend mode="normal" in2="shape" result="effect1_innerShadow_2249_256"/>
<feColorMatrix in="SourceAlpha" type="matrix" values="0 0 0 0 0 0 0 0 0 0 0 0 0 0 0 0 0 0 127 0" result="hardAlpha"/>
<feOffset dx="-3.51675" dy="-3.51675"/>
<feGaussianBlur stdDeviation="8.79187"/>
<feComposite in2="hardAlpha" operator="arithmetic" k2="-1" k3="1"/>
<feColorMatrix type="matrix" values="0 0 0 0 0.999964 0 0 0 0 0.999964 0 0 0 0 0.999964 0 0 0 1 0"/>
<feBlend mode="normal" in2="effect1_innerShadow_2249_256" result="effect2_innerShadow_2249_256"/>
</filter>
<filter id="filter1_d_2249_256" x="139.125" y="-0.201793" width="70.429" height="70.426" filterUnits="userSpaceOnUse" color-interpolation-filters="sRGB">
<feFlood flood-opacity="0" result="BackgroundImageFix"/>
<feColorMatrix in="SourceAlpha" type="matrix" values="0 0 0 0 0 0 0 0 0 0 0 0 0 0 0 0 0 0 127 0" result="hardAlpha"/>
<feOffset dx="-2.86364"/>
<feGaussianBlur stdDeviation="2.50568"/>
<feComposite in2="hardAlpha" operator="out"/>
<feColorMatrix type="matrix" values="0 0 0 0 0 0 0 0 0 0 0 0 0 0 0 0 0 0 0.07 0"/>
<feBlend mode="normal" in2="BackgroundImageFix" result="effect1_dropShadow_2249_256"/>
<feBlend mode="normal" in="SourceGraphic" in2="effect1_dropShadow_2249_256" result="shape"/>
</filter>
</defs>
</svg>
